<svg width="263" height="249" viewBox="0 0 263 249" fill="none" xmlns="http://www.w3.org/2000/svg">
<circle cx="148.596" cy="146.528" r="77.5735" fill="#539CD2"/>
<circle cx="81.7107" cy="93.4329" r="77.5735" fill="#539CD2"/>
<circle cx="81.0213" cy="86.5376" r="77.5735" fill="#FFC600"/>
<mask id="mask0_8_789" style="mask-type:alpha" maskUnits="userSpaceOnUse" x="0" y="8" width="156" height="157">
<circle cx="77.5735" cy="86.5376" r="77.5735" fill="#FFC600"/>
</mask>
<g mask="url(#mask0_8_789)">
<g style="mix-blend-mode:multiply">
<circle cx="148.596" cy="146.528" r="77.5735" fill="#F0BB00"/>
</g>
</g>
<circle cx="83.7796" cy="77.5735" r="77.5735" fill="#FFD84F"/>
<mask id="mask1_8_789" style="mask-type:alpha" maskUnits="userSpaceOnUse" x="6" y="0" width="156" height="156">
<circle cx="83.7796" cy="77.5735" r="77.5735" fill="#FFD84F"/>
</mask>
<g mask="url(#mask1_8_789)">
<g style="mix-blend-mode:multiply">
<circle cx="148.596" cy="146.528" r="77.5735" fill="#F0BB00"/>
</g>
<g style="mix-blend-mode:multiply">
<circle cx="84.1244" cy="77.9184" r="67.0229" stroke="#F0BB00" stroke-width="8"/>
</g>
<g filter="url(#filter0_i_8_789)">
<path d="M87.8517 101.782C90.6966 101.225 92.7983 100.151 94.157 98.559C95.5143 96.9375 96.1307 94.8435 96.0061 92.2768C95.9569 91.2621 95.7351 90.3903 95.3408 89.6616C94.945 88.903 94.4192 88.2404 93.7635 87.6739C93.1078 87.1075 92.3363 86.6214 91.4491 86.2157C90.5604 85.7802 89.6 85.4079 88.5679 85.099L87.8517 101.782ZM82.189 56.286C80.677 56.5687 79.3954 56.975 78.3442 57.5046C77.2915 58.0044 76.4378 58.5993 75.7833 59.2892C75.1585 59.9776 74.7016 60.7327 74.4124 61.5545C74.1516 62.3449 74.0429 63.1878 74.0863 64.0832C74.1356 65.0979 74.3439 66.0002 74.7113 66.7901C75.1071 67.5487 75.6335 68.2262 76.2907 68.8225C76.9479 69.4188 77.7215 69.9497 78.6116 70.4151C79.5003 70.8506 80.4763 71.237 81.5397 71.5743L82.189 56.286ZM89.0437 73.6333C90.4965 73.9817 91.9515 74.3748 93.4087 74.8126C94.8645 75.2206 96.2641 75.7061 97.6077 76.2692C98.9513 76.8322 100.21 77.504 101.385 78.2847C102.56 79.0653 103.592 80.0024 104.483 81.096C105.402 82.1582 106.136 83.409 106.684 84.8482C107.233 86.2875 107.553 87.9472 107.644 89.8275C107.779 92.603 107.429 95.2526 106.594 97.7761C105.787 100.268 104.52 102.514 102.792 104.512C101.063 106.481 98.9141 108.125 96.3456 109.447C93.7772 110.768 90.7976 111.63 87.4068 112.034L87.165 118.149C87.143 118.928 86.8487 119.645 86.2822 120.301C85.7157 120.956 84.955 121.307 83.9999 121.354L79.4784 121.573L79.8707 112.086C78.1579 111.93 76.4543 111.653 74.7598 111.257C73.0937 110.829 71.483 110.309 69.9276 109.696C68.3707 109.054 66.8998 108.333 65.5147 107.532C64.1283 106.702 62.8725 105.791 61.7474 104.798L65.2811 99.0177C65.5862 98.5243 66.0151 98.1146 66.5677 97.7886C67.1188 97.4328 67.6928 97.2404 68.2897 97.2115C68.9761 97.1781 69.7026 97.3523 70.469 97.7339C71.2354 98.1156 72.0807 98.5831 73.005 99.1366C73.9577 99.6587 75.0156 100.191 76.1787 100.733C77.3716 101.273 78.7371 101.67 80.2751 101.925L81.0748 83.2638C79.6235 82.9454 78.1699 82.5821 76.7142 82.1741C75.2868 81.7348 73.9006 81.2187 72.5556 80.6258C71.2106 80.033 69.95 79.3313 68.7739 78.5208C67.6262 77.679 66.6048 76.6666 65.7098 75.4835C64.8147 74.3004 64.0901 72.9295 63.5358 71.3709C62.9801 69.7824 62.6515 67.9436 62.5502 65.8545C62.4372 63.5266 62.7905 61.2508 63.61 59.0272C64.428 56.7738 65.6755 54.7389 67.3523 52.9224C69.0591 51.1045 71.1839 49.5804 73.7268 48.3502C76.2683 47.0901 79.221 46.2887 82.5848 45.946L82.8187 40.5948C82.8408 39.8159 83.1358 39.1135 83.7037 38.4877C84.3 37.8305 85.0608 37.4795 85.986 37.4346L90.5523 37.213L90.1722 46.0266C93.423 46.4372 96.2286 47.2285 98.5889 48.4003C100.949 49.5722 102.989 50.9241 104.709 52.4561L101.882 57.0805C101.497 57.7872 101.074 58.3163 100.613 58.6678C100.15 58.9894 99.5899 59.1661 98.9333 59.198C98.4856 59.2197 97.9426 59.1264 97.3043 58.9181C96.6944 58.6784 96.0076 58.3976 95.2441 58.0757C94.4792 57.7239 93.6247 57.3765 92.6807 57.0334C91.7665 56.6888 90.7955 56.4069 89.7678 56.1875L89.0437 73.6333Z" fill="#F09E00"/>
</g>
</g>
<circle cx="156.181" cy="153.423" r="77.5735" fill="#FFC600"/>
<circle cx="161.495" cy="147.015" r="77.5735" transform="rotate(-67.294 161.495 147.015)" fill="#FFD84F"/>
<g style="mix-blend-mode:multiply">
<circle cx="161.353" cy="146.872" r="67.0229" stroke="#F0BB00" stroke-width="8"/>
</g>
<g filter="url(#filter1_i_8_789)">
<path d="M158.074 171.344C160.959 171.634 163.281 171.213 165.042 170.083C166.811 168.923 168.006 167.097 168.63 164.604C168.876 163.619 168.916 162.72 168.749 161.908C168.59 161.068 168.278 160.281 167.815 159.549C167.351 158.817 166.753 158.129 166.021 157.484C165.296 156.81 164.485 156.176 163.586 155.582L158.074 171.344ZM165.815 126.155C164.286 125.988 162.942 126.007 161.782 126.209C160.63 126.383 159.641 126.706 158.815 127.177C158.018 127.655 157.362 128.246 156.847 128.949C156.369 129.63 156.021 130.405 155.803 131.275C155.557 132.26 155.495 133.184 155.619 134.047C155.778 134.888 156.086 135.688 156.543 136.449C156.999 137.21 157.586 137.942 158.304 138.645C159.028 139.319 159.851 139.971 160.771 140.602L165.815 126.155ZM167.358 144.744C168.648 145.498 169.928 146.295 171.196 147.135C172.471 147.947 173.671 148.817 174.794 149.744C175.917 150.672 176.928 151.679 177.827 152.766C178.725 153.854 179.443 155.049 179.979 156.354C180.551 157.637 180.892 159.046 181.001 160.582C181.109 162.119 180.935 163.8 180.479 165.626C179.805 168.322 178.703 170.757 177.174 172.931C175.681 175.084 173.818 176.866 171.586 178.279C169.361 179.664 166.828 180.616 163.988 181.138C161.147 181.66 158.045 181.624 154.682 181.029L152.682 186.812C152.436 187.551 151.947 188.153 151.215 188.617C150.483 189.081 149.653 189.196 148.725 188.965L144.334 187.866L147.454 178.898C145.859 178.253 144.308 177.496 142.801 176.626C141.33 175.735 139.939 174.771 138.627 173.735C137.323 172.669 136.123 171.553 135.029 170.386C133.942 169.191 133.003 167.955 132.214 166.68L137.268 162.168C137.703 161.784 138.232 161.516 138.856 161.364C139.486 161.183 140.091 161.165 140.671 161.31C141.338 161.476 141.983 161.853 142.606 162.44C143.229 163.027 143.903 163.719 144.628 164.517C145.389 165.292 146.247 166.107 147.204 166.963C148.19 167.825 149.382 168.6 150.78 169.289L156.944 151.657C155.647 150.932 154.361 150.164 153.085 149.352C151.846 148.519 150.669 147.624 149.553 146.667C148.437 145.711 147.433 144.674 146.541 143.558C145.686 142.421 145.002 141.156 144.487 139.764C143.973 138.373 143.675 136.851 143.596 135.199C143.523 133.518 143.741 131.662 144.248 129.633C144.814 127.372 145.81 125.296 147.238 123.404C148.673 121.484 150.456 119.897 152.586 118.643C154.746 117.397 157.221 116.553 160.011 116.111C162.808 115.64 165.866 115.727 169.185 116.372L170.958 111.317C171.204 110.578 171.69 109.991 172.414 109.556C173.175 109.1 174.005 108.984 174.904 109.208L179.339 110.317L176.425 118.644C179.418 119.977 181.875 121.547 183.795 123.351C185.716 125.156 187.277 127.04 188.48 129.004L184.436 132.613C183.864 133.178 183.306 133.562 182.762 133.765C182.226 133.939 181.639 133.946 181.001 133.787C180.566 133.678 180.074 133.432 179.523 133.047C179.008 132.642 178.432 132.174 177.795 131.645C177.164 131.087 176.447 130.507 175.642 129.906C174.867 129.311 174.019 128.761 173.099 128.253L167.358 144.744Z" fill="#F09E00"/>
</g>
<ellipse cx="199.619" cy="112.283" rx="8.94558" ry="5.36735" transform="rotate(49.1973 199.619 112.283)" fill="#FFF1C1"/>
<ellipse cx="113.609" cy="33.0986" rx="8.94558" ry="5.36735" transform="rotate(39.7023 113.609 33.0986)" fill="#FFF1C1"/>
<circle cx="126.133" cy="45.6224" r="3.57823" fill="#FFF1C1"/>
<circle cx="209.905" cy="126.702" r="3.57823" transform="rotate(9.49506 209.905 126.702)" fill="#FFF1C1"/>
<defs>
<filter id="filter0_i_8_789" x="61.7473" y="37.2131" width="45.9248" height="84.3599" filterUnits="userSpaceOnUse" color-interpolation-filters="sRGB">
<feFlood flood-opacity="0" result="BackgroundImageFix"/>
<feBlend mode="normal" in="SourceGraphic" in2="BackgroundImageFix" result="shape"/>
<feColorMatrix in="SourceAlpha" type="matrix" values="0 0 0 0 0 0 0 0 0 0 0 0 0 0 0 0 0 0 127 0" result="hardAlpha"/>
<feOffset dy="-3"/>
<feComposite in2="hardAlpha" operator="arithmetic" k2="-1" k3="1"/>
<feColorMatrix type="matrix" values="0 0 0 0 0.858333 0 0 0 0 0.521408 0 0 0 0 0.0071528 0 0 0 1 0"/>
<feBlend mode="normal" in2="shape" result="effect1_innerShadow_8_789"/>
</filter>
<filter id="filter1_i_8_789" x="132.214" y="109.097" width="56.2666" height="79.9834" filterUnits="userSpaceOnUse" color-interpolation-filters="sRGB">
<feFlood flood-opacity="0" result="BackgroundImageFix"/>
<feBlend mode="normal" in="SourceGraphic" in2="BackgroundImageFix" result="shape"/>
<feColorMatrix in="SourceAlpha" type="matrix" values="0 0 0 0 0 0 0 0 0 0 0 0 0 0 0 0 0 0 127 0" result="hardAlpha"/>
<feOffset dy="-3"/>
<feComposite in2="hardAlpha" operator="arithmetic" k2="-1" k3="1"/>
<feColorMatrix type="matrix" values="0 0 0 0 0.858333 0 0 0 0 0.521408 0 0 0 0 0.0071528 0 0 0 1 0"/>
<feBlend mode="normal" in2="shape" result="effect1_innerShadow_8_789"/>
</filter>
</defs>
</svg>
