<svg width="828" height="830" viewBox="0 0 828 830" fill="none" xmlns="http://www.w3.org/2000/svg">
<g filter="url(#filter0_d_8_1035)">
<path d="M270.173 594.162C265.151 595.893 260.107 591.62 260.989 586.382L280.065 473.025C280.533 470.249 279.291 467.463 276.914 465.954L179.867 404.346C175.382 401.5 175.578 394.892 180.223 392.315L280.743 336.553C283.205 335.187 284.609 332.48 284.307 329.68L271.965 215.394C271.395 210.113 276.683 206.146 281.594 208.171L387.863 251.994C390.466 253.067 393.459 252.476 395.459 250.495L477.117 169.59C480.89 165.851 487.289 167.512 488.767 172.614L520.763 283.022C521.547 285.726 523.875 287.698 526.671 288.026L640.838 301.425C646.113 302.044 648.804 308.083 645.738 312.419L579.366 406.273C577.741 408.572 577.65 411.621 579.137 414.012L639.843 511.626C642.648 516.136 639.605 522.005 634.303 522.311L519.543 528.937C516.732 529.099 514.292 530.929 513.35 533.583L474.882 641.906C473.104 646.911 466.619 648.191 463.073 644.236L386.341 558.644C384.462 556.548 381.51 555.781 378.848 556.699L270.173 594.162Z" fill="#FFD84F"/>
</g>
<path fill-rule="evenodd" clip-rule="evenodd" d="M426.488 283.847L472.996 271.296L486.904 272.775L486.905 272.775L486.905 272.775L506.469 345.263L506.469 345.266L525.788 416.848C538.449 463.759 512.352 511.992 467.061 527.532L453.532 477.403L453.528 477.404L453.528 477.405L467.056 527.53C465.105 528.198 463.119 528.805 461.097 529.351C447.883 532.935 434.034 533.507 420.57 531.022C412.52 529.539 404.747 526.987 397.45 523.479C404.747 526.988 412.519 529.543 420.568 531.031C381.157 529.879 345.483 503.219 334.68 463.191L315.361 391.609L295.797 319.118L342.305 306.566L356.215 308.046L356.219 308.045L375.783 380.536L375.782 380.536L394.182 448.715C395.67 454.244 398.234 459.426 401.726 463.964C405.218 468.503 409.571 472.308 414.535 475.163C418.055 477.187 421.833 478.706 425.758 479.68C425.427 479.598 425.097 479.511 424.768 479.421C427.794 479.249 430.794 478.764 433.719 477.973C435.639 477.453 437.52 476.803 439.352 476.029C459.12 467.693 470.201 445.817 464.453 424.516L446.053 356.339L446.049 356.339L426.485 283.848L434.883 284.74L426.488 283.847ZM329.27 393.086L329.27 393.086L309.707 320.598L309.707 320.598L329.271 393.089L329.27 393.086ZM329.271 393.089L329.274 393.088L348.593 464.67C352.492 479.117 359.63 491.825 369.015 502.22C359.628 491.825 352.489 479.119 348.59 464.671L329.271 393.089Z" fill="#539CD2"/>
<path d="M453.627 477.74C455.639 477.198 457.61 476.513 459.524 475.69L459.517 475.663L445.3 474.389L459.517 475.663L459.524 475.69C479.131 467.259 490.081 445.486 484.358 424.282L465.958 356.101L452.049 354.624L470.449 422.802C476.198 444.103 465.116 465.979 445.348 474.314C443.517 475.089 441.635 475.739 439.716 476.259C436.79 477.049 433.79 477.535 430.764 477.707C438.245 479.761 446.14 479.773 453.627 477.74Z" fill="#B43535"/>
<path d="M354.587 462.957L335.267 391.373L321.359 389.895L340.677 461.478C351.48 501.506 387.154 528.166 426.566 529.317C392.907 523.097 364.101 498.21 354.587 462.957Z" fill="#3E869C"/>
<path d="M499.872 346.949L465.957 356.102L484.358 424.282C490.08 445.486 479.134 467.258 459.525 475.68L473.057 525.819C518.348 510.279 544.445 462.046 531.784 415.135L512.465 343.55L499.872 346.949Z" fill="#E13C3C"/>
<path d="M453.629 477.74C448.101 479.235 442.332 479.625 436.654 478.889C430.975 478.152 425.497 476.304 420.533 473.449C415.569 470.594 411.217 466.788 407.724 462.25C404.232 457.712 401.669 452.53 400.18 447L381.78 378.82L335.272 391.372L354.591 462.956C364.105 498.209 392.906 523.106 426.568 529.308C440.032 531.792 453.881 531.221 467.095 527.636C469.117 527.091 471.104 526.484 473.054 525.816L459.523 475.68C457.61 476.506 455.64 477.194 453.629 477.74Z" fill="#53B4D2"/>
<path d="M348.303 304.852L301.795 317.403L315.704 318.883L362.212 306.331L348.303 304.852Z" fill="white"/>
<path d="M478.992 269.581L432.484 282.132L446.394 283.612L492.902 271.06L478.992 269.581Z" fill="white"/>
<path d="M349.623 309.729L315.704 318.883L335.268 391.374L369.187 382.22L381.78 378.821L362.216 306.33L349.623 309.729Z" fill="#F1F1F1"/>
<path d="M480.308 274.459L446.389 283.614L465.953 356.104L499.872 346.95L512.465 343.552L492.901 271.061L480.308 274.459Z" fill="#F1F1F1"/>
<path d="M315.704 318.883L301.795 317.403L321.359 389.894L335.268 391.372L315.704 318.883Z" fill="#BABABA"/>
<path d="M446.394 283.612L432.481 282.133L452.045 354.624L465.958 356.101L446.394 283.612Z" fill="#BABABA"/>
<g style="mix-blend-mode:soft-light">
<rect x="473.215" y="319.718" width="22.6832" height="125.555" rx="11.3416" transform="rotate(-14.7483 473.215 319.718)" fill="white"/>
</g>
<g style="mix-blend-mode:soft-light">
<rect x="466.39" y="292.423" width="22.6832" height="18.6167" rx="9.30834" transform="rotate(-14.7483 466.39 292.423)" fill="white"/>
</g>
<defs>
<filter id="filter0_d_8_1035" x="172.618" y="167.558" width="474.412" height="493.007" filterUnits="userSpaceOnUse" color-interpolation-filters="sRGB">
<feFlood flood-opacity="0" result="BackgroundImageFix"/>
<feColorMatrix in="SourceAlpha" type="matrix" values="0 0 0 0 0 0 0 0 0 0 0 0 0 0 0 0 0 0 127 0" result="hardAlpha"/>
<feOffset dx="-3" dy="13"/>
<feGaussianBlur stdDeviation="0.5"/>
<feComposite in2="hardAlpha" operator="out"/>
<feColorMatrix type="matrix" values="0 0 0 0 0.32549 0 0 0 0 0.611765 0 0 0 0 0.823529 0 0 0 1 0"/>
<feBlend mode="normal" in2="BackgroundImageFix" result="effect1_dropShadow_8_1035"/>
<feBlend mode="normal" in="SourceGraphic" in2="effect1_dropShadow_8_1035" result="shape"/>
</filter>
</defs>
</svg>
