<svg width="686" height="684" viewBox="0 0 686 684" fill="none" xmlns="http://www.w3.org/2000/svg">
<g filter="url(#filter0_d_8_993)">
<path d="M198.823 521.162C193.801 522.893 188.757 518.62 189.638 513.383L208.715 400.026C209.182 397.249 207.941 394.463 205.564 392.954L108.516 331.346C104.032 328.5 104.228 321.892 108.872 319.315L209.392 263.553C211.854 262.187 213.259 259.48 212.956 256.681L200.615 142.394C200.045 137.113 205.333 133.146 210.243 135.171L316.513 178.994C319.116 180.067 322.109 179.477 324.109 177.495L405.767 96.5897C409.54 92.8514 415.939 94.5124 417.417 99.6139L449.413 210.022C450.197 212.726 452.524 214.698 455.321 215.026L569.488 228.425C574.763 229.044 577.454 235.083 574.387 239.419L508.016 333.273C506.39 335.572 506.3 338.621 507.787 341.012L568.493 438.626C571.298 443.136 568.255 449.005 562.952 449.311L448.193 455.937C445.382 456.099 442.942 457.93 442 460.583L403.532 568.906C401.754 573.911 395.268 575.191 391.723 571.236L314.991 485.644C313.112 483.548 310.159 482.782 307.498 483.699L198.823 521.162Z" fill="#FFD84F"/>
</g>
<ellipse cx="350.937" cy="344.94" rx="114.867" ry="118.633" transform="rotate(-5.13961 350.937 344.94)" fill="#539CD2"/>
<ellipse cx="355.846" cy="336.463" rx="113.925" ry="118.162" transform="rotate(-5.13961 355.846 336.463)" fill="#A5A5A5"/>
<path fill-rule="evenodd" clip-rule="evenodd" d="M338.728 157.94C348.656 157.047 358.562 164.859 359.642 176.868C360.723 188.876 352.369 198.33 342.441 199.223C332.513 200.116 322.606 192.304 321.526 180.296C320.446 168.288 328.799 158.833 338.728 157.94ZM343.792 214.25C362.8 212.541 376.527 195.075 374.767 175.507C373.007 155.94 356.383 141.204 337.376 142.913C318.369 144.623 304.642 162.089 306.402 181.656C308.162 201.224 324.785 215.96 343.792 214.25ZM328.371 198.166C332.524 201.15 337.575 202.657 342.708 202.196C354.388 201.145 363.832 190.138 362.615 176.6C362.31 173.216 361.379 170.106 359.969 167.361C361.379 170.106 362.31 173.216 362.615 176.6C363.833 190.138 354.388 201.145 342.708 202.196C337.575 202.657 332.524 201.15 328.371 198.166ZM309.374 181.389C309.962 187.927 312.342 193.852 315.957 198.677C312.342 193.852 309.962 187.927 309.374 181.389C307.75 163.331 320.407 147.436 337.644 145.886C345.1 145.215 352.193 147.339 357.972 151.427C352.193 147.339 345.1 145.215 337.643 145.886C320.407 147.436 307.75 163.331 309.374 181.389Z" fill="#E13C3C"/>
<mask id="mask0_8_993" style="mask-type:alpha" maskUnits="userSpaceOnUse" x="306" y="142" width="69" height="73">
<path fill-rule="evenodd" clip-rule="evenodd" d="M359.642 176.868C360.723 188.876 352.369 198.33 342.441 199.223C332.513 200.116 322.606 192.304 321.526 180.296C320.446 168.288 328.799 158.833 338.728 157.94C348.656 157.047 358.562 164.859 359.642 176.868ZM343.792 214.25C362.8 212.541 376.527 195.075 374.767 175.507C373.007 155.94 356.383 141.204 337.376 142.913C318.369 144.623 304.642 162.089 306.402 181.656C308.162 201.224 324.785 215.96 343.792 214.25ZM333.554 200.94C336.449 202.022 339.563 202.478 342.708 202.196C354.388 201.145 363.832 190.138 362.615 176.6C362.006 169.831 358.887 164.161 354.461 160.314C358.887 164.161 362.006 169.831 362.615 176.6C363.833 190.138 354.388 201.145 342.708 202.196C339.564 202.479 336.449 202.022 333.554 200.94ZM320.595 203.686C314.415 198.278 310.187 190.418 309.374 181.389C307.75 163.331 320.407 147.436 337.644 145.886C342.333 145.464 346.879 146.147 351.045 147.73C346.879 146.147 342.333 145.464 337.643 145.886C320.407 147.436 307.75 163.331 309.374 181.389C310.186 190.418 314.415 198.278 320.595 203.686Z" fill="#E13C3C"/>
</mask>
<g mask="url(#mask0_8_993)">
<path fill-rule="evenodd" clip-rule="evenodd" d="M356.958 175.847C359.39 183.348 355.495 190.571 349.358 192.561C343.22 194.551 335.828 190.988 333.395 183.488C330.963 175.987 334.858 168.764 340.995 166.773C347.133 164.783 354.525 168.346 356.958 175.847ZM352.402 201.947C364.151 198.137 370.27 185.038 366.307 172.815C362.343 160.592 349.701 153.577 337.951 157.387C326.202 161.197 320.083 174.297 324.046 186.519C328.01 198.742 340.652 205.758 352.402 201.947ZM333.017 170.788C330.741 174.454 329.992 179.255 331.558 184.083C334.3 192.54 342.74 196.759 349.96 194.418C352.667 193.54 354.972 191.814 356.651 189.554C354.972 191.814 352.667 193.54 349.96 194.418C342.74 196.759 334.3 192.54 331.558 184.083C329.992 179.254 330.741 174.454 333.017 170.788ZM364.6 186.87C365.902 182.682 365.955 177.992 364.469 173.411C360.812 162.131 349.209 155.788 338.553 159.243C333.993 160.722 330.346 163.756 327.952 167.627C330.346 163.756 333.993 160.722 338.553 159.244C349.209 155.788 360.811 162.131 364.469 173.411C365.955 177.992 365.901 182.682 364.6 186.87Z" fill="#B43535"/>
</g>
<path fill-rule="evenodd" clip-rule="evenodd" d="M353.209 185.686L329.43 187.825L332.371 220.521C332.482 221.753 337.894 222.272 344.461 221.681C351.027 221.091 356.261 219.614 356.15 218.383C356.15 218.382 356.15 218.381 356.15 218.381L353.209 185.686Z" fill="#C2C2C2"/>
<mask id="mask1_8_993" style="mask-type:alpha" maskUnits="userSpaceOnUse" x="329" y="185" width="28" height="37">
<path fill-rule="evenodd" clip-rule="evenodd" d="M353.209 185.686L329.43 187.825L332.371 220.521C332.482 221.753 337.894 222.272 344.461 221.681C351.027 221.091 356.261 219.614 356.15 218.383C356.15 218.382 356.15 218.381 356.15 218.381L353.209 185.686Z" fill="#C2C2C2"/>
</mask>
<g mask="url(#mask1_8_993)">
<rect x="319.51" y="177.481" width="19.3984" height="53.7187" transform="rotate(-5.13961 319.51 177.481)" fill="#A5A5A5"/>
</g>
<ellipse cx="340.944" cy="186.551" rx="11.7692" ry="2.35383" transform="rotate(-5.13961 340.944 186.551)" fill="#E4E4E4"/>
<path fill-rule="evenodd" clip-rule="evenodd" d="M320.324 197.818C322.824 194.542 327.505 193.913 330.781 196.412C331.269 196.784 332.129 197.318 333.029 197.775C333.43 197.979 333.748 198.121 333.956 198.204C337.702 198.934 340.34 202.417 339.942 206.288C339.522 210.387 335.858 213.369 331.759 212.948C330.429 212.811 329.242 212.38 328.614 212.137C327.827 211.832 327.023 211.461 326.271 211.079C324.804 210.334 323.123 209.338 321.73 208.276C318.454 205.776 317.825 201.094 320.324 197.818Z" fill="#E13C3C"/>
<ellipse cx="361.473" cy="335.957" rx="108.276" ry="118.162" transform="rotate(-5.13961 361.473 335.957)" fill="#C2C2C2"/>
<ellipse cx="365.266" cy="336.089" rx="86.621" ry="102.627" transform="rotate(-5.13961 365.266 336.089)" fill="#DEDEDE"/>
<mask id="mask2_8_993" style="mask-type:alpha" maskUnits="userSpaceOnUse" x="278" y="233" width="174" height="205">
<ellipse cx="365.026" cy="335.897" rx="86.3522" ry="102.053" transform="rotate(-5.13961 365.026 335.897)" fill="white"/>
</mask>
<g mask="url(#mask2_8_993)">
<ellipse cx="359.346" cy="337.203" rx="86.5468" ry="94.0078" transform="rotate(-5.13961 359.346 337.203)" fill="white"/>
</g>
<g style="mix-blend-mode:overlay">
<ellipse cx="369.017" cy="335.751" rx="90.3871" ry="102.627" transform="rotate(-5.13961 369.017 335.751)" fill="#C6F1FF"/>
</g>
<path d="M351.584 256.555L359.403 255.851L375.88 342.647L364.261 343.706L351.584 256.555Z" fill="#6D6D6D"/>
<path d="M419.142 304.225L421.083 307.135L371.472 352.649L364.14 343.574L419.142 304.225Z" fill="#6D6D6D"/>
<ellipse cx="370.672" cy="343.638" rx="7.53226" ry="10.8276" transform="rotate(-5.13961 370.672 343.638)" fill="#6D6D6D"/>
<path fill-rule="evenodd" clip-rule="evenodd" d="M386.112 250.907C386.501 248.874 388.442 247.55 390.447 247.949C398.354 249.522 407.312 254.701 414.762 261.705C422.233 268.727 428.614 277.984 430.873 288.114C431.324 290.135 430.074 292.141 428.081 292.593C426.089 293.045 424.108 291.772 423.657 289.751C421.825 281.537 416.487 273.543 409.74 267.2C402.972 260.838 395.215 256.538 389.04 255.31C387.035 254.911 385.724 252.94 386.112 250.907Z" fill="#E1F7FF"/>
<path fill-rule="evenodd" clip-rule="evenodd" d="M275.304 285.085C273.371 284.373 272.38 282.229 273.092 280.296C276.16 271.959 282.885 261.721 290.951 252.724C299.003 243.745 308.807 235.537 318.306 231.687C320.215 230.913 322.39 231.833 323.164 233.742C323.938 235.652 323.018 237.827 321.109 238.601C313.116 241.841 304.214 249.11 296.506 257.705C288.814 266.284 282.726 275.721 280.094 282.873C279.382 284.806 277.238 285.797 275.304 285.085Z" fill="white"/>
<path fill-rule="evenodd" clip-rule="evenodd" d="M348.91 191.033C350.205 190.917 351.341 191.778 351.447 192.957L352.918 209.319C353.024 210.497 352.061 211.547 350.766 211.664C349.471 211.78 348.336 210.919 348.23 209.74L346.758 193.378C346.652 192.2 347.616 191.15 348.91 191.033Z" fill="white"/>
<circle cx="331.269" cy="231.378" r="3.76613" transform="rotate(-5.13961 331.269 231.378)" fill="white"/>
<ellipse cx="379.201" cy="249.283" rx="3.76613" ry="4.2369" transform="rotate(-5.13961 379.201 249.283)" fill="#E1F7FF"/>
<defs>
<filter id="filter0_d_8_993" x="101.268" y="94.5583" width="474.412" height="493.007" filterUnits="userSpaceOnUse" color-interpolation-filters="sRGB">
<feFlood flood-opacity="0" result="BackgroundImageFix"/>
<feColorMatrix in="SourceAlpha" type="matrix" values="0 0 0 0 0 0 0 0 0 0 0 0 0 0 0 0 0 0 127 0" result="hardAlpha"/>
<feOffset dx="-3" dy="13"/>
<feGaussianBlur stdDeviation="0.5"/>
<feComposite in2="hardAlpha" operator="out"/>
<feColorMatrix type="matrix" values="0 0 0 0 0.32549 0 0 0 0 0.611765 0 0 0 0 0.823529 0 0 0 1 0"/>
<feBlend mode="normal" in2="BackgroundImageFix" result="effect1_dropShadow_8_993"/>
<feBlend mode="normal" in="SourceGraphic" in2="effect1_dropShadow_8_993" result="shape"/>
</filter>
</defs>
</svg>
